<?xml version="1.0" encoding="utf-8"?>
<!-- Generator: Adobe Illustrator 23.0.4, SVG Export Plug-In . SVG Version: 6.00 Build 0)  -->
<svg version="1.1" id="Layer_1" xmlns="http://www.w3.org/2000/svg" xmlns:xlink="http://www.w3.org/1999/xlink" x="0px" y="0px"
	 viewBox="0 0 1920 1080" style="enable-background:new 0 0 1920 1080;" xml:space="preserve">
<style type="text/css">
	.st0{fill:#FFFFFF;}
</style>
<g>
	<g>
		<path class="st0" d="M789.59,726.04c0.16-0.73,0.47-1.67,0.57-2.64c0.7-6.77,3.28-12.99,5.63-19.28
			c2.35-6.29,4.64-12.6,6.93-18.91c2.4-6.61,4.95-13.18,7.12-19.87c1.84-5.67,3.22-11.49,4.82-17.24c0.98-3.51,2.05-6.99,2.95-10.52
			c0.96-3.79,1.81-7.6,2.6-11.42c0.74-3.58,1.77-7.18,1.9-10.79c0.27-7.4,3.69-13.18,8.5-18.33c7.84-8.41,16.45-15.93,26.13-22.19
			c10.63-6.87,22.4-9.88,34.9-10.24c5.32-0.15,10.76-0.51,15.97,0.32c8.16,1.31,16.54,1.81,24.33,5.03
			c6.5,2.68,13.01,5.35,19.53,7.99c1.36,0.55,2.78,0.96,4.1,1.42c0.32,2-0.8,2.47-2.17,2.96c-8.8,3.14-17.59,6.32-26.36,9.54
			c-4.28,1.57-8.54,3.21-12.77,4.9c-5.38,2.15-10.7,4.44-16.09,6.55c-2.62,1.03-5.31,1.91-8.03,2.65c-5.12,1.4-10.22,3.1-15.64,2.49
			c-2.12-0.24-4.19-0.82-6.29-1.26c-1.7-0.36-3.39-0.98-5.09-1c-0.8-0.01-2.15,0.97-2.3,1.7c-0.17,0.84,0.45,2.35,1.18,2.78
			c3.82,2.2,7.87,3.76,12.41,3.87c6.75,0.17,13.19-1.17,19.46-3.57c7.74-2.96,15.5-5.87,23.22-8.87c7.87-3.06,15.68-6.28,23.57-9.27
			c5.56-2.11,11.14-4.27,16.85-5.9c18.46-5.25,37.13-9.46,56.52-7.96c6.7,0.52,13.36,1.71,20.02,2.77c4.42,0.7,8.81,1.63,13.17,2.64
			c2.74,0.64,5.48,1.42,8.06,2.5c5.64,2.36,11.3,4.73,16.71,7.55c3.64,1.9,5.92,5.15,6.6,9.45c0.45,2.85,1.38,5.63,2.08,8.44
			c0.99,4.03,2.09,8.03,2.92,12.09c1.08,5.29,2,10.61,2.9,15.93c0.91,5.41,1.81,10.83,2.52,16.26c1.38,10.47,2.76,20.95,3.88,31.46
			c1.01,9.44,1.65,18.91,2.47,28.37c0.08,0.91,0.27,1.81,0.46,2.71c0.4,1.94,1.5,2.82,3.57,3.15c8.69,1.38,17.4,2.74,26.01,4.56
			c6.56,1.38,12.98,3.42,19.45,5.21c4.95,1.37,10.02,2.47,14.8,4.32c7.41,2.86,14.77,5.94,21.86,9.51c4.77,2.4,9.28,5.5,13.48,8.82
			c3.26,2.58,5.71,6.15,6.17,10.51c0.44,4.15-1.25,7.61-4.26,10.45c-6.17,5.83-13.31,10.06-21.2,13.14
			c-3.78,1.48-7.39,3.37-11.13,4.92c-2.29,0.95-4.66,1.71-7.05,2.38c-5.58,1.59-11.17,3.19-16.81,4.57
			c-8.86,2.18-17.73,4.29-26.64,6.22c-6.64,1.43-13.33,2.64-20.04,3.72c-11.4,1.85-22.81,3.65-34.25,5.22
			c-7.42,1.02-14.89,1.73-22.36,2.34c-37.3,3.01-74.65,4.85-112.09,3.74c-19.15-0.57-38.31-0.95-57.44-1.95
			c-16.04-0.84-32.05-2.25-48.04-3.79c-10.75-1.03-21.46-2.54-32.14-4.17c-11.25-1.71-22.49-3.6-33.65-5.84
			c-6.16-1.23-12.15-3.32-18.22-5.03c-2.56-0.72-5.15-1.33-7.65-2.22c-5.37-1.93-10.84-3.7-15.99-6.11
			c-5.05-2.36-9.99-5.12-14.55-8.31c-3.86-2.7-6.86-6.35-7.73-11.42c-1.01-5.89,1.03-10.6,5.26-14.28
			c6.13-5.33,12.67-10.1,20.58-12.7c4.09-1.34,7.93-3.4,11.98-4.86c4.9-1.77,9.88-3.33,14.86-4.85c3.88-1.18,7.81-2.23,11.74-3.23
			c3.62-0.92,7.25-1.8,10.91-2.53C773.31,729.08,781.31,727.61,789.59,726.04z M789.49,728.18c-0.38,0.41-0.82,0.7-0.98,1.11
			c-0.88,2.22-1.82,4.42-2.51,6.7c-2.15,7.07-3.32,14.23-1.56,21.61c0.59,2.46,1.88,4.16,4.25,5.1c2.46,0.97,4.83,2.17,7.3,3.09
			c4.34,1.62,8.69,3.27,13.12,4.59c3.72,1.11,7.59,1.73,11.38,2.61c2.9,0.68,5.78,1.44,8.68,2.14c4.51,1.09,8.98,2.42,13.54,3.18
			c6.47,1.08,13.01,1.82,19.53,2.58c9.67,1.13,19.33,2.52,29.04,3.13c13.05,0.83,26.13,1.38,39.2,1.39
			c16.48,0.02,32.98-0.36,49.45-1.1c10.3-0.46,20.56-1.81,30.82-2.95c8.1-0.9,16.17-2.04,24.24-3.18c4.28-0.61,8.52-1.46,12.77-2.21
			c3.52-0.62,7.08-1.07,10.54-1.91c6.61-1.62,13.2-3.31,19.72-5.26c6.75-2.02,13.41-4.33,20.08-6.62c0.86-0.3,1.82-1.1,2.18-1.91
			c0.98-2.18,1.87-4.44,2.41-6.76c1.41-6.13,0.51-12.3-0.43-18.36c-0.44-2.81-1.12-6.17-4.73-6.76c-1.8,1.11-3.57,2.07-5.45,2.66
			c-2.53,0.79-5.14,1.37-7.74,1.92c-9.09,1.92-18.17,3.9-27.29,5.65c-5.3,1.02-10.68,1.64-16.03,2.45
			c-7.64,1.16-15.25,2.51-22.92,3.44c-8.67,1.05-17.39,1.74-26.09,2.54c-11.69,1.07-23.36,2.6-35.07,3.02
			c-16.39,0.59-32.81,0.66-49.21,0.34c-17.81-0.35-35.66-0.83-53.4-2.31c-13.81-1.15-27.54-3.65-41.21-6.07
			c-5.75-1.02-11.3-3.27-16.84-5.23c-1.6-0.57-3.13-1.89-4.19-3.26C790.95,732.04,790.39,730.1,789.49,728.18z"/>
		<path class="st0" d="M1171.19,363.64c0,0.93,0,1.73,0,2.55c-11.88,0-23.64,0-35.72,0c-0.05-0.67-0.11-1.52-0.16-2.32
			c5.51-1.53,6.54-2.47,6.64-7.92c0.23-11.58,0.2-23.16,0.21-34.74c0.01-5.5-0.01-11-0.23-16.49c-0.28-7.2-5.52-10.33-12.15-7.31
			c-5.21,2.37-8.39,6.63-8.77,12.16c-0.6,8.71-0.55,17.46-0.6,26.2c-0.04,6.99-0.03,14,0.36,20.97c0.27,4.8,1.66,5.96,6.41,6.94
			c0,0.85,0,1.72,0,2.5c-12.18,0-24.21,0-36.54,0c-0.04-0.71-0.08-1.55-0.14-2.53c0.78-0.09,1.34-0.16,1.9-0.23
			c4.74-0.6,7.04-2.93,7.09-7.74c0.16-15.74,0.23-31.49,0.25-47.23c0-2.31-0.28-4.66-0.72-6.93c-0.71-3.64-2.86-5.92-6.72-6.3
			c-0.48-0.05-0.96-0.21-1.59-0.36c0-0.88,0-1.71,0-2.05c9.93-0.53,19.6-1.05,29.56-1.58c0,3.24,0,6.93,0,11.14
			c0.73-0.58,1.09-0.74,1.27-1.03c5.89-9.62,14.99-12.11,25.43-11.08c8.03,0.79,13.47,4.95,15.15,13.69
			c0.64-0.91,1.09-1.45,1.41-2.04c4.44-8.24,11.95-11.16,20.67-11.82c5.4-0.4,10.69,0.17,15.27,3.46c4.87,3.49,6.32,8.73,6.45,14.24
			c0.3,12.4,0.24,24.82,0.34,37.23c0.03,3.25-0.09,6.51,0.18,9.74c0.56,6.69,1.99,8.05,8.9,8.88c0,0.82,0,1.67,0,2.55
			c-12.11,0-24.14,0-36.5,0c-0.04-0.63-0.1-1.48-0.15-2.3c5.64-1.7,6.6-2.57,6.65-8.41c0.15-16.57,0.11-33.14,0-49.71
			c-0.02-3.54-0.64-7.22-4.6-8.67c-4.37-1.6-8.38-0.55-11.84,2.51c-4.2,3.71-6.03,8.53-6.07,14c-0.08,12.66-0.03,25.33-0.01,37.99
			c0,1.25,0.17,2.49,0.26,3.73C1163.54,361.24,1165.08,362.86,1171.19,363.64z"/>
		<path class="st0" d="M1011.89,363.62c0,1.03,0,1.83,0,2.62c-12.5,0-24.87,0-37.42,0c0-0.8,0-1.65,0-2.48
			c6.17-1.35,7.48-3.01,7.48-9.49c0.01-15.5,0.04-31-0.02-46.49c-0.02-4.31-0.21-8.78-5.02-10.76c-4.6-1.9-10.64,0.15-14.11,4.39
			c-2.7,3.3-3.88,7.15-3.89,11.35c-0.03,13.91-0.04,27.83,0.03,41.74c0.01,1.72,0.39,3.48,0.9,5.13c0.97,3.14,3.81,3.58,6.62,4.01
			c0,0.91,0,1.73,0,2.59c-12.38,0-24.75,0-37.37,0c-0.03-0.7-0.07-1.56-0.11-2.35c0.27-0.18,0.39-0.33,0.53-0.34
			c6.46-0.71,8.21-2.24,8.42-8.78c0.3-9.24,0.22-18.49,0.23-27.74c0-7.33,0-14.66-0.24-21.99c-0.22-6.77-2.16-8.89-8.77-10.15
			c0-0.83,0-1.7,0-2.11c9.9-0.52,19.73-1.04,29.74-1.57c0,3.25,0,6.98,0,11.04c0.55-0.33,0.9-0.41,1.02-0.62
			c4.35-7.76,11.48-10.8,19.86-11.44c3.12-0.24,6.35-0.05,9.44,0.49c8.06,1.42,12.98,7.43,13.21,16.71
			c0.36,14.57,0.31,29.15,0.45,43.72c0.02,1.67,0.01,3.34,0.14,4.99c0.33,4.4,2.21,6.45,6.53,7.22
			C1010.23,363.46,1010.97,363.51,1011.89,363.62z"/>
		<path class="st0" d="M842.13,363.65c0,0.95,0,1.75,0,2.34c-6.35,0-12.56,0-18.77,0c-6.15,0-12.3,0-18.77,0
			c-0.02-0.47-0.06-1.32-0.1-2.14c6.19-1.58,7.55-2.88,7.58-8.46c0.09-16.5,0-32.99-0.04-49.49c0-0.99-0.18-1.99-0.4-2.95
			c-1.09-4.81-3.91-6.88-8.8-6.53c-6.72,0.48-12.06,5.45-13.31,12.49c-0.28,1.55-0.43,3.14-0.43,4.72
			c-0.03,13.33-0.02,26.66-0.01,40c0,0.91,0.04,1.84,0.18,2.73c0.85,5.3,1.93,6.37,7.39,7.3c0,0.84,0,1.7,0,2.58
			c-12.41,0-24.78,0-37.32,0c0-0.72,0-1.57,0-2.46c0.13-0.08,0.25-0.22,0.4-0.23c6.47-0.75,8.11-2.18,8.46-8.77
			c0.35-6.65,0.26-13.32,0.23-19.99c-0.04-10.16,0.02-20.33-0.39-30.47c-0.26-6.49-2.16-8.2-8.75-9.45
			c-0.03-0.78-0.07-1.63-0.09-2.08c10.03-0.53,19.85-1.04,29.92-1.57c0,3.33,0,7.18,0,11.78c1.11-1.64,1.75-2.66,2.47-3.64
			c4.47-6.14,10.9-8.59,18.11-9.13c3.36-0.25,6.86-0.07,10.17,0.59c7.64,1.52,12.22,7.01,12.62,15.55
			c0.47,10.14,0.43,20.31,0.55,30.47c0.07,5.58-0.01,11.17,0.02,16.75C833.08,360.77,834.83,362.73,842.13,363.65z"/>
		<path class="st0" d="M920.49,328.28c-0.5,6.86-0.94,13.59-3.35,19.99c-3.67,9.78-10.48,16.22-20.72,18.75
			c-9.02,2.23-18,2.11-26.77-1.11c-9.93-3.65-15.86-11.05-18.45-21.05c-2.5-9.64-2.53-19.48-0.41-29.2
			c3.41-15.66,13.78-24.28,30.24-25.5c7.33-0.54,14.47,0.36,21.22,3.4c8.04,3.62,13,10.05,15.26,18.36
			C918.96,317.24,919.53,322.82,920.49,328.28z M870.75,327.14c0.54,7.62,0.74,13.03,1.35,18.4c0.65,5.73,2,11.32,5.59,16.06
			c4.03,5.31,10.17,5.47,13.95,0.02c1.9-2.74,3.51-5.95,4.25-9.18c3.3-14.29,2.95-28.73,0.76-43.15c-0.7-4.64-2.22-9.05-5.23-12.79
			c-3.89-4.83-9.72-4.99-13.28,0.03c-2.02,2.85-3.89,6.19-4.54,9.56C872.15,313.74,871.47,321.54,870.75,327.14z"/>
		<path class="st0" d="M756.55,363.83c0,0.81,0,1.53,0,2.4c-14.5,0-28.92,0-43.48,0c0-0.81,0-1.58,0-2.45
			c1.95-0.31,3.78-0.47,5.53-0.91c3.77-0.95,4.98-2.6,4.05-6.36c-0.94-3.78-2.35-7.45-3.66-11.12c-2.06-5.79-4.21-11.54-6.34-17.35
			c-10.49,0-20.8,0-31.41,0c-2.97,7.97-6.82,15.78-7.63,24.5c-0.62,6.66,2.55,10.11,9.48,10.88c0.9,0.1,1.8,0.15,2.91,0.23
			c0.08,0.9,0.15,1.69,0.23,2.57c-9.6,0-19.02,0-28.58,0c-0.04-0.75-0.08-1.48-0.13-2.38c6.64-2.55,9.52-8.26,11.89-14.31
			c10.73-27.42,21.41-54.87,32.12-82.3c0.36-0.92,0.77-1.82,1.18-2.79c3.32,0,6.55,0,9.99,0c2.94,7.55,5.89,15.13,8.83,22.71
			c8.65,22.25,17.3,44.5,25.93,66.76C749.18,358.4,751.43,362.38,756.55,363.83z M697.33,286.14c-5.11,13.31-9.95,25.9-14.83,38.62
			c9.82,0,19.25,0,28.97,0C706.77,311.95,702.18,299.4,697.33,286.14z"/>
		<path class="st0" d="M1061.3,294.8c0-0.84,0-1.63,0-2.53c8.26,0,16.37,0,24.76,0c0.05,0.73,0.11,1.6,0.17,2.58
			c-6.67,2.53-8.6,8.54-10.68,14.34c-8.41,23.48-16.63,47.03-25.17,70.46c-1.3,3.56-3.38,7.2-6.07,9.82
			c-6.16,5.99-19.58,5.36-25.75-0.65c-4.49-4.37-3.22-12.78,2.66-15.09c2.79-1.1,6.17-1.27,9.21-1.03c3.69,0.29,6.69,2.35,7.47,6.29
			c0.8,4.07-0.38,7.58-3.85,10.12c-0.56,0.41-1.1,0.83-1.87,1.42c5.52,0.9,10.3-1.34,12.96-6.39c1.77-3.36,2.97-7.03,4.27-10.62
			c0.26-0.73-0.04-1.8-0.38-2.59c-9.78-22.32-19.59-44.62-29.42-66.92c-1.83-4.16-3.61-8.44-9.1-8.94c0-1.04,0-1.91,0-2.58
			c13.16,0,26.16,0,39.37,0c0.04,0.56,0.11,1.35,0.18,2.31c-1.64,0.19-3.2,0.32-4.74,0.57c-4.12,0.67-5.31,2.58-3.78,6.48
			c2.24,5.73,4.64,11.4,6.99,17.09c3.31,7.99,6.63,15.97,9.95,23.95c0.28,0.67,0.64,1.3,1.19,2.43c1.56-4.33,3.01-8.17,4.31-12.05
			c2.52-7.48,5.05-14.95,7.35-22.5c0.59-1.93,0.63-4.14,0.43-6.18c-0.46-4.69-3.41-7.9-7.98-9.15
			C1062.98,295.25,1062.19,295.04,1061.3,294.8z"/>
	</g>
</g>
</svg>
